<svg id="Capa_1" data-name="Capa 1" xmlns="http://www.w3.org/2000/svg" viewBox="0 0 292.73 295"><defs><style>.cls-1{fill:#040404;}.cls-1,.cls-5{stroke:#fff;}.cls-1,.cls-3,.cls-4,.cls-5,.cls-6{stroke-miterlimit:10;}.cls-2{opacity:0.39;}.cls-3,.cls-4,.cls-5,.cls-6{fill:none;}.cls-3{stroke:#2355a4;stroke-width:7px;}.cls-4{stroke:#3ca4cb;stroke-width:3px;}.cls-6{stroke:#49b8d4;stroke-width:4px;}</style></defs><title>backgroundPol</title><polygon class="cls-1" points="154.12 107.68 123.89 107.68 108.77 133.86 123.89 160.04 154.12 160.04 169.23 133.86 154.12 107.68"/><g class="cls-2"><polygon class="cls-3" points="49.39 82.05 19.16 82.05 4.04 108.23 19.16 134.41 49.39 134.41 64.51 108.23 49.39 82.05"/><polygon class="cls-3" points="94.12 108.23 63.88 108.23 48.77 134.41 63.88 160.59 94.12 160.59 109.23 134.41 94.12 108.23"/><polygon class="cls-3" points="49.39 29.68 19.16 29.68 4.04 55.86 19.16 82.05 49.39 82.05 64.51 55.86 49.39 29.68"/><polygon class="cls-3" points="94.12 55.86 63.88 55.86 48.77 82.05 63.88 108.23 94.12 108.23 109.23 82.05 94.12 55.86"/><polyline class="cls-3" points="153.96 108.23 138.84 82.05 108.61 82.05 93.5 108.23 108.61 134.41"/><polygon class="cls-3" points="94.12 3.5 63.88 3.5 48.77 29.68 63.88 55.86 94.12 55.86 109.23 29.68 94.12 3.5"/><polygon class="cls-3" points="138.84 29.68 108.61 29.68 93.5 55.86 108.61 82.05 138.84 82.05 153.96 55.86 138.84 29.68"/><polygon class="cls-4" points="49.39 82.05 19.16 82.05 4.04 108.23 19.16 134.41 49.39 134.41 64.51 108.23 49.39 82.05"/><polygon class="cls-4" points="94.12 108.23 63.88 108.23 48.77 134.41 63.88 160.59 94.12 160.59 109.23 134.41 94.12 108.23"/><polygon class="cls-4" points="49.39 29.68 19.16 29.68 4.04 55.86 19.16 82.05 49.39 82.05 64.51 55.86 49.39 29.68"/><polygon class="cls-4" points="94.12 55.86 63.88 55.86 48.77 82.05 63.88 108.23 94.12 108.23 109.23 82.05 94.12 55.86"/><polyline class="cls-4" points="153.96 108.23 138.84 82.05 108.61 82.05 93.5 108.23 108.61 134.41"/><polygon class="cls-4" points="94.12 3.5 63.88 3.5 48.77 29.68 63.88 55.86 94.12 55.86 109.23 29.68 94.12 3.5"/><polygon class="cls-4" points="138.84 29.68 108.61 29.68 93.5 55.86 108.61 82.05 138.84 82.05 153.96 55.86 138.84 29.68"/><polygon class="cls-5" points="49.39 82.05 19.16 82.05 4.04 108.23 19.16 134.41 49.39 134.41 64.51 108.23 49.39 82.05"/><polygon class="cls-5" points="94.12 108.23 63.88 108.23 48.77 134.41 63.88 160.59 94.12 160.59 109.23 134.41 94.12 108.23"/><polygon class="cls-5" points="49.39 29.68 19.16 29.68 4.04 55.86 19.16 82.05 49.39 82.05 64.51 55.86 49.39 29.68"/><polygon class="cls-5" points="94.12 55.86 63.88 55.86 48.77 82.05 63.88 108.23 94.12 108.23 109.23 82.05 94.12 55.86"/><polyline class="cls-5" points="153.96 108.23 138.84 82.05 108.61 82.05 93.5 108.23 108.61 134.41"/><polygon class="cls-5" points="94.12 3.5 63.88 3.5 48.77 29.68 63.88 55.86 94.12 55.86 109.23 29.68 94.12 3.5"/><polygon class="cls-5" points="138.84 29.68 108.61 29.68 93.5 55.86 108.61 82.05 138.84 82.05 153.96 55.86 138.84 29.68"/></g><g class="cls-2"><polyline class="cls-3" points="153.88 160.59 184.12 160.59 199.23 134.41 184.12 108.23 153.88 108.23"/><polygon class="cls-3" points="228.84 134.41 198.61 134.41 183.5 160.59 198.61 186.77 228.84 186.77 243.96 160.59 228.84 134.41"/><polygon class="cls-3" points="184.12 55.86 153.88 55.86 138.77 82.05 153.88 108.23 184.12 108.23 199.23 82.05 184.12 55.86"/><polygon class="cls-3" points="228.84 82.05 198.61 82.05 183.5 108.23 198.61 134.41 228.84 134.41 243.96 108.23 228.84 82.05"/><polygon class="cls-3" points="273.57 108.23 243.34 108.23 228.22 134.41 243.34 160.59 273.57 160.59 288.69 134.41 273.57 108.23"/><polygon class="cls-3" points="228.84 29.68 198.61 29.68 183.5 55.86 198.61 82.05 228.84 82.05 243.96 55.86 228.84 29.68"/><polygon class="cls-3" points="273.57 55.86 243.34 55.86 228.22 82.05 243.34 108.23 273.57 108.23 288.69 82.05 273.57 55.86"/><polyline class="cls-4" points="153.88 160.59 184.12 160.59 199.23 134.41 184.12 108.23 153.88 108.23"/><polygon class="cls-4" points="228.84 134.41 198.61 134.41 183.5 160.59 198.61 186.77 228.84 186.77 243.96 160.59 228.84 134.41"/><polygon class="cls-4" points="184.12 55.86 153.88 55.86 138.77 82.05 153.88 108.23 184.12 108.23 199.23 82.05 184.12 55.86"/><polygon class="cls-4" points="228.84 82.05 198.61 82.05 183.5 108.23 198.61 134.41 228.84 134.41 243.96 108.23 228.84 82.05"/><polygon class="cls-4" points="273.57 108.23 243.34 108.23 228.22 134.41 243.34 160.59 273.57 160.59 288.69 134.41 273.57 108.23"/><polygon class="cls-4" points="228.84 29.68 198.61 29.68 183.5 55.86 198.61 82.05 228.84 82.05 243.96 55.86 228.84 29.68"/><polygon class="cls-4" points="273.57 55.86 243.34 55.86 228.22 82.05 243.34 108.23 273.57 108.23 288.69 82.05 273.57 55.86"/><polyline class="cls-5" points="153.88 160.59 184.12 160.59 199.23 134.41 184.12 108.23 153.88 108.23"/><polygon class="cls-5" points="228.84 134.41 198.61 134.41 183.5 160.59 198.61 186.77 228.84 186.77 243.96 160.59 228.84 134.41"/><polygon class="cls-5" points="184.12 55.86 153.88 55.86 138.77 82.05 153.88 108.23 184.12 108.23 199.23 82.05 184.12 55.86"/><polygon class="cls-5" points="228.84 82.05 198.61 82.05 183.5 108.23 198.61 134.41 228.84 134.41 243.96 108.23 228.84 82.05"/><polygon class="cls-5" points="273.57 108.23 243.34 108.23 228.22 134.41 243.34 160.59 273.57 160.59 288.69 134.41 273.57 108.23"/><polygon class="cls-5" points="228.84 29.68 198.61 29.68 183.5 55.86 198.61 82.05 228.84 82.05 243.96 55.86 228.84 29.68"/><polygon class="cls-5" points="273.57 55.86 243.34 55.86 228.22 82.05 243.34 108.23 273.57 108.23 288.69 82.05 273.57 55.86"/></g><g class="cls-2"><polygon class="cls-3" points="94.12 212.96 63.88 212.96 48.77 239.14 63.88 265.32 94.12 265.32 109.23 239.14 94.12 212.96"/><polygon class="cls-3" points="138.84 239.14 108.61 239.14 93.5 265.32 108.61 291.5 138.84 291.5 153.96 265.32 138.84 239.14"/><polygon class="cls-3" points="94.12 160.59 63.88 160.59 48.77 186.77 63.88 212.96 94.12 212.96 109.23 186.77 94.12 160.59"/><polygon class="cls-3" points="138.84 186.77 108.61 186.77 93.5 212.96 108.61 239.14 138.84 239.14 153.96 212.96 138.84 186.77"/><polygon class="cls-3" points="183.57 212.96 153.34 212.96 138.22 239.14 153.34 265.32 183.57 265.32 198.69 239.14 183.57 212.96"/><polyline class="cls-3" points="108.61 134.41 93.5 160.59 108.61 186.77 138.84 186.77 153.96 160.59"/><polygon class="cls-3" points="183.57 160.59 153.34 160.59 138.22 186.77 153.34 212.96 183.57 212.96 198.69 186.77 183.57 160.59"/><polygon class="cls-4" points="94.12 212.96 63.88 212.96 48.77 239.14 63.88 265.32 94.12 265.32 109.23 239.14 94.12 212.96"/><polygon class="cls-4" points="138.84 239.14 108.61 239.14 93.5 265.32 108.61 291.5 138.84 291.5 153.96 265.32 138.84 239.14"/><polygon class="cls-4" points="94.12 160.59 63.88 160.59 48.77 186.77 63.88 212.96 94.12 212.96 109.23 186.77 94.12 160.59"/><polygon class="cls-4" points="138.84 186.77 108.61 186.77 93.5 212.96 108.61 239.14 138.84 239.14 153.96 212.96 138.84 186.77"/><polygon class="cls-4" points="183.57 212.96 153.34 212.96 138.22 239.14 153.34 265.32 183.57 265.32 198.69 239.14 183.57 212.96"/><polyline class="cls-4" points="108.61 134.41 93.5 160.59 108.61 186.77 138.84 186.77 153.96 160.59"/><polygon class="cls-4" points="183.57 160.59 153.34 160.59 138.22 186.77 153.34 212.96 183.57 212.96 198.69 186.77 183.57 160.59"/><polygon class="cls-5" points="94.12 212.96 63.88 212.96 48.77 239.14 63.88 265.32 94.12 265.32 109.23 239.14 94.12 212.96"/><polygon class="cls-5" points="138.84 239.14 108.61 239.14 93.5 265.32 108.61 291.5 138.84 291.5 153.96 265.32 138.84 239.14"/><polygon class="cls-5" points="94.12 160.59 63.88 160.59 48.77 186.77 63.88 212.96 94.12 212.96 109.23 186.77 94.12 160.59"/><polygon class="cls-5" points="138.84 186.77 108.61 186.77 93.5 212.96 108.61 239.14 138.84 239.14 153.96 212.96 138.84 186.77"/><polygon class="cls-5" points="183.57 212.96 153.34 212.96 138.22 239.14 153.34 265.32 183.57 265.32 198.69 239.14 183.57 212.96"/><polyline class="cls-5" points="108.61 134.41 93.5 160.59 108.61 186.77 138.84 186.77 153.96 160.59"/><polygon class="cls-5" points="183.57 160.59 153.34 160.59 138.22 186.77 153.34 212.96 183.57 212.96 198.69 186.77 183.57 160.59"/></g><polygon class="cls-6" points="153.71 108.39 123.67 108.39 108.65 134.41 123.67 160.43 153.71 160.43 168.73 134.41 153.71 108.39"/><line class="cls-6" x1="138.77" y1="134.35" x2="153.79" y2="108.33"/><line class="cls-6" x1="154" y1="160.32" x2="138.73" y2="134.14"/><line class="cls-6" x1="138.56" y1="134.31" x2="109.27" y2="134.68"/></svg>