<svg id="Capa_1" data-name="Capa 1" xmlns="http://www.w3.org/2000/svg" viewBox="0 0 1366 768"><defs><style>.cls-1{fill:#57036b;}.cls-2{fill:#020200;}.cls-2,.cls-6{stroke:#fff;}.cls-2,.cls-4,.cls-5,.cls-6,.cls-7{stroke-miterlimit:10;}.cls-3{opacity:0.39;}.cls-4,.cls-5,.cls-6,.cls-7{fill:none;}.cls-4{stroke:#2b59d8;stroke-width:7px;}.cls-5{stroke:#40a9ff;stroke-width:3px;}.cls-7{stroke:#4fc7fc;stroke-width:4px;}</style></defs><title>fonda</title><rect class="cls-1" x="0.5" y="0.5" width="1365" height="767"/><path d="M1365,1V767H1V1H1365m1-1H0V768H1366V0Z"/><polygon class="cls-2" points="711.21 335.5 655.79 335.5 628.07 383.5 655.79 431.5 711.21 431.5 738.93 383.5 711.21 335.5"/><g class="cls-3"><polygon class="cls-4" points="519.21 288.5 463.79 288.5 436.07 336.5 463.79 384.5 519.21 384.5 546.93 336.5 519.21 288.5"/><polygon class="cls-4" points="601.21 336.5 545.79 336.5 518.07 384.5 545.79 432.5 601.21 432.5 628.93 384.5 601.21 336.5"/><polygon class="cls-4" points="519.21 192.5 463.79 192.5 436.07 240.5 463.79 288.5 519.21 288.5 546.93 240.5 519.21 192.5"/><polygon class="cls-4" points="601.21 240.5 545.79 240.5 518.07 288.5 545.79 336.5 601.21 336.5 628.93 288.5 601.21 240.5"/><polyline class="cls-4" points="710.93 336.5 683.21 288.5 627.79 288.5 600.07 336.5 627.79 384.5"/><polygon class="cls-4" points="601.21 144.5 545.79 144.5 518.07 192.5 545.79 240.5 601.21 240.5 628.93 192.5 601.21 144.5"/><polygon class="cls-4" points="683.21 192.5 627.79 192.5 600.07 240.5 627.79 288.5 683.21 288.5 710.93 240.5 683.21 192.5"/><polygon class="cls-5" points="519.21 288.5 463.79 288.5 436.07 336.5 463.79 384.5 519.21 384.5 546.93 336.5 519.21 288.5"/><polygon class="cls-5" points="601.21 336.5 545.79 336.5 518.07 384.5 545.79 432.5 601.21 432.5 628.93 384.5 601.21 336.5"/><polygon class="cls-5" points="519.21 192.5 463.79 192.5 436.07 240.5 463.79 288.5 519.21 288.5 546.93 240.5 519.21 192.5"/><polygon class="cls-5" points="601.21 240.5 545.79 240.5 518.07 288.5 545.79 336.5 601.21 336.5 628.93 288.5 601.21 240.5"/><polyline class="cls-5" points="710.93 336.5 683.21 288.5 627.79 288.5 600.07 336.5 627.79 384.5"/><polygon class="cls-5" points="601.21 144.5 545.79 144.5 518.07 192.5 545.79 240.5 601.21 240.5 628.93 192.5 601.21 144.5"/><polygon class="cls-5" points="683.21 192.5 627.79 192.5 600.07 240.5 627.79 288.5 683.21 288.5 710.93 240.5 683.21 192.5"/><polygon class="cls-6" points="519.21 288.5 463.79 288.5 436.07 336.5 463.79 384.5 519.21 384.5 546.93 336.5 519.21 288.5"/><polygon class="cls-6" points="601.21 336.5 545.79 336.5 518.07 384.5 545.79 432.5 601.21 432.5 628.93 384.5 601.21 336.5"/><polygon class="cls-6" points="519.21 192.5 463.79 192.5 436.07 240.5 463.79 288.5 519.21 288.5 546.93 240.5 519.21 192.5"/><polygon class="cls-6" points="601.21 240.5 545.79 240.5 518.07 288.5 545.79 336.5 601.21 336.5 628.93 288.5 601.21 240.5"/><polyline class="cls-6" points="710.93 336.5 683.21 288.5 627.79 288.5 600.07 336.5 627.79 384.5"/><polygon class="cls-6" points="601.21 144.5 545.79 144.5 518.07 192.5 545.79 240.5 601.21 240.5 628.93 192.5 601.21 144.5"/><polygon class="cls-6" points="683.21 192.5 627.79 192.5 600.07 240.5 627.79 288.5 683.21 288.5 710.93 240.5 683.21 192.5"/></g><g class="cls-3"><polyline class="cls-4" points="710.79 432.5 766.21 432.5 793.93 384.5 766.21 336.5 710.79 336.5"/><polygon class="cls-4" points="848.21 384.5 792.79 384.5 765.07 432.5 792.79 480.5 848.21 480.5 875.93 432.5 848.21 384.5"/><polygon class="cls-4" points="766.21 240.5 710.79 240.5 683.07 288.5 710.79 336.5 766.21 336.5 793.93 288.5 766.21 240.5"/><polygon class="cls-4" points="848.21 288.5 792.79 288.5 765.07 336.5 792.79 384.5 848.21 384.5 875.93 336.5 848.21 288.5"/><polygon class="cls-4" points="930.21 336.5 874.79 336.5 847.07 384.5 874.79 432.5 930.21 432.5 957.93 384.5 930.21 336.5"/><polygon class="cls-4" points="848.21 192.5 792.79 192.5 765.07 240.5 792.79 288.5 848.21 288.5 875.93 240.5 848.21 192.5"/><polygon class="cls-4" points="930.21 240.5 874.79 240.5 847.07 288.5 874.79 336.5 930.21 336.5 957.93 288.5 930.21 240.5"/><polyline class="cls-5" points="710.79 432.5 766.21 432.5 793.93 384.5 766.21 336.5 710.79 336.5"/><polygon class="cls-5" points="848.21 384.5 792.79 384.5 765.07 432.5 792.79 480.5 848.21 480.5 875.93 432.5 848.21 384.5"/><polygon class="cls-5" points="766.21 240.5 710.79 240.5 683.07 288.5 710.79 336.5 766.21 336.5 793.93 288.5 766.21 240.5"/><polygon class="cls-5" points="848.21 288.5 792.79 288.5 765.07 336.5 792.79 384.5 848.21 384.5 875.93 336.5 848.21 288.5"/><polygon class="cls-5" points="930.21 336.5 874.79 336.5 847.07 384.5 874.79 432.5 930.21 432.5 957.93 384.5 930.21 336.5"/><polygon class="cls-5" points="848.21 192.5 792.79 192.5 765.07 240.5 792.79 288.5 848.21 288.5 875.93 240.5 848.21 192.5"/><polygon class="cls-5" points="930.21 240.5 874.79 240.5 847.07 288.5 874.79 336.5 930.21 336.5 957.93 288.5 930.21 240.5"/><polyline class="cls-6" points="710.79 432.5 766.21 432.5 793.93 384.5 766.21 336.5 710.79 336.5"/><polygon class="cls-6" points="848.21 384.5 792.79 384.5 765.07 432.5 792.79 480.5 848.21 480.5 875.93 432.5 848.21 384.5"/><polygon class="cls-6" points="766.21 240.5 710.79 240.5 683.07 288.5 710.79 336.5 766.21 336.5 793.93 288.5 766.21 240.5"/><polygon class="cls-6" points="848.21 288.5 792.79 288.5 765.07 336.5 792.79 384.5 848.21 384.5 875.93 336.5 848.21 288.5"/><polygon class="cls-6" points="930.21 336.5 874.79 336.5 847.07 384.5 874.79 432.5 930.21 432.5 957.93 384.5 930.21 336.5"/><polygon class="cls-6" points="848.21 192.5 792.79 192.5 765.07 240.5 792.79 288.5 848.21 288.5 875.93 240.5 848.21 192.5"/><polygon class="cls-6" points="930.21 240.5 874.79 240.5 847.07 288.5 874.79 336.5 930.21 336.5 957.93 288.5 930.21 240.5"/></g><g class="cls-3"><polygon class="cls-4" points="601.21 528.5 545.79 528.5 518.07 576.5 545.79 624.5 601.21 624.5 628.93 576.5 601.21 528.5"/><polygon class="cls-4" points="683.21 576.5 627.79 576.5 600.07 624.5 627.79 672.5 683.21 672.5 710.93 624.5 683.21 576.5"/><polygon class="cls-4" points="601.21 432.5 545.79 432.5 518.07 480.5 545.79 528.5 601.21 528.5 628.93 480.5 601.21 432.5"/><polygon class="cls-4" points="683.21 480.5 627.79 480.5 600.07 528.5 627.79 576.5 683.21 576.5 710.93 528.5 683.21 480.5"/><polygon class="cls-4" points="765.21 528.5 709.79 528.5 682.07 576.5 709.79 624.5 765.21 624.5 792.93 576.5 765.21 528.5"/><polyline class="cls-4" points="627.79 384.5 600.07 432.5 627.79 480.5 683.21 480.5 710.93 432.5"/><polygon class="cls-4" points="765.21 432.5 709.79 432.5 682.07 480.5 709.79 528.5 765.21 528.5 792.93 480.5 765.21 432.5"/><polygon class="cls-5" points="601.21 528.5 545.79 528.5 518.07 576.5 545.79 624.5 601.21 624.5 628.93 576.5 601.21 528.5"/><polygon class="cls-5" points="683.21 576.5 627.79 576.5 600.07 624.5 627.79 672.5 683.21 672.5 710.93 624.5 683.21 576.5"/><polygon class="cls-5" points="601.21 432.5 545.79 432.5 518.07 480.5 545.79 528.5 601.21 528.5 628.93 480.5 601.21 432.5"/><polygon class="cls-5" points="683.21 480.5 627.79 480.5 600.07 528.5 627.79 576.5 683.21 576.5 710.93 528.5 683.21 480.5"/><polygon class="cls-5" points="765.21 528.5 709.79 528.5 682.07 576.5 709.79 624.5 765.21 624.5 792.93 576.5 765.21 528.5"/><polyline class="cls-5" points="627.79 384.5 600.07 432.5 627.79 480.5 683.21 480.5 710.93 432.5"/><polygon class="cls-5" points="765.21 432.5 709.79 432.5 682.07 480.5 709.79 528.5 765.21 528.5 792.93 480.5 765.21 432.5"/><polygon class="cls-6" points="601.21 528.5 545.79 528.5 518.07 576.5 545.79 624.5 601.21 624.5 628.93 576.5 601.21 528.5"/><polygon class="cls-6" points="683.21 576.5 627.79 576.5 600.07 624.5 627.79 672.5 683.21 672.5 710.93 624.5 683.21 576.5"/><polygon class="cls-6" points="601.21 432.5 545.79 432.5 518.07 480.5 545.79 528.5 601.21 528.5 628.93 480.5 601.21 432.5"/><polygon class="cls-6" points="683.21 480.5 627.79 480.5 600.07 528.5 627.79 576.5 683.21 576.5 710.93 528.5 683.21 480.5"/><polygon class="cls-6" points="765.21 528.5 709.79 528.5 682.07 576.5 709.79 624.5 765.21 624.5 792.93 576.5 765.21 528.5"/><polyline class="cls-6" points="627.79 384.5 600.07 432.5 627.79 480.5 683.21 480.5 710.93 432.5"/><polygon class="cls-6" points="765.21 432.5 709.79 432.5 682.07 480.5 709.79 528.5 765.21 528.5 792.93 480.5 765.21 432.5"/></g><polygon class="cls-7" points="710.46 336.8 655.39 336.8 627.85 384.5 655.39 432.2 710.46 432.2 738 384.5 710.46 336.8"/><line class="cls-7" x1="683.07" y1="384.39" x2="710.61" y2="336.7"/><line class="cls-7" x1="711" y1="432" x2="683" y2="384"/><line class="cls-7" x1="682.69" y1="384.31" x2="629" y2="385"/></svg>