<svg id="Capa_1" data-name="Capa 1" xmlns="http://www.w3.org/2000/svg" viewBox="0 0 158.12 46.77"><defs><style>.cls-1,.cls-2{stroke:#fff;stroke-miterlimit:10;stroke-width:3px;}.cls-2{fill:none;}</style></defs><title>logo</title><polygon class="cls-1" points="27.07 12.44 14.43 12.44 8.12 23.39 14.43 34.33 27.07 34.33 33.39 23.39 27.07 12.44"/><polygon class="cls-2" points="20.69 23.39 8.05 23.39 1.73 34.33 8.05 45.27 20.69 45.27 27 34.33 20.69 23.39"/><polygon class="cls-2" points="39.61 12.44 26.97 12.44 20.66 23.39 26.97 34.33 39.61 34.33 45.93 23.39 39.61 12.44"/><polygon class="cls-2" points="20.69 1.5 8.05 1.5 1.73 12.44 8.05 23.39 20.69 23.39 27 12.44 20.69 1.5"/><path d="M55,47.38V6.25H65.87c1.26,0,2.34.82,3.25,2.47a12,12,0,0,1,1.37,5.92v3.17a12.06,12.06,0,0,1-1.36,5.93c-.9,1.64-2,2.46-3.26,2.46h-2l6.3,19.49a5.49,5.49,0,0,1,.29,1.72A3.71,3.71,0,0,1,70,49.34q-.48.81-1.08.81c-.62,0-1.08-.48-1.4-1.48L60.31,26.2H58.08V47.38a3.87,3.87,0,0,1-.46,2,1.35,1.35,0,0,1-1.11.81,1.3,1.3,0,0,1-1.1-.81A4,4,0,0,1,55,47.38Zm3.09-26.73h7.82A1.3,1.3,0,0,0,67,19.84a4,4,0,0,0,.45-2V14.64a4,4,0,0,0-.45-2,1.3,1.3,0,0,0-1.09-.81H58.05Z" transform="translate(-3.16 -4.85)"/><path d="M81.1,6.25h8c1,0,1.9.74,2.78,2.23a10.39,10.39,0,0,1,1.31,5.4,4,4,0,0,1-.46,2c-.32.55-.66.83-1,.83a1.08,1.08,0,0,1-1.08-.64,10.19,10.19,0,0,1-.57-2.4c-.17-1.17-.57-1.75-1.18-1.75H81.27c-.37,0-.55.21-.55.64a2.08,2.08,0,0,0,.22.93L92.41,39.81a10.28,10.28,0,0,1,.82,4.1,9.14,9.14,0,0,1-1,4.36c-.66,1.26-1.41,1.88-2.23,1.88H81.69c-1.1,0-2.06-.75-2.87-2.26a10.25,10.25,0,0,1-1.22-5c0-2.07.53-3.11,1.61-3.11.42,0,.77.27,1.06.81a3.84,3.84,0,0,1,.45,1.9A3,3,0,0,0,81.05,44a1,1,0,0,0,.86.59h7.67c.33,0,.5-.23.5-.7a2,2,0,0,0-.23-.87L78.4,16.72a10.27,10.27,0,0,1-.8-4.1,9.31,9.31,0,0,1,1-4.47C79.31,6.88,80.14,6.25,81.1,6.25Z" transform="translate(-3.16 -4.85)"/><path d="M115.86,28v2.44a4.31,4.31,0,0,1-.44,2c-.3.56-.67.84-1.1.84H101.88c-.43,0-.79-.28-1.09-.84a4.19,4.19,0,0,1-.45-2V28a4,4,0,0,1,.45-2,1.28,1.28,0,0,1,1.09-.81h12.44a1.33,1.33,0,0,1,1.07.78A3.75,3.75,0,0,1,115.86,28Z" transform="translate(-3.16 -4.85)"/><path d="M123.13,46.29l6.21-38c.25-1.38.77-2.06,1.56-2.06s1.25.58,1.45,1.75l6.15,38.55a6.06,6.06,0,0,1,.07.83,4.08,4.08,0,0,1-.44,2c-.29.54-.63.81-1,.81-.81,0-1.32-.67-1.54-2l-1.22-7.53H127.3L126,48.67a1.86,1.86,0,0,1-.46,1,1.2,1.2,0,0,1-.89.47,1.3,1.3,0,0,1-1.13-.82,4.31,4.31,0,0,1-.44-2A6,6,0,0,1,123.13,46.29Zm7.75-27.19L128.23,35h5.22Z" transform="translate(-3.16 -4.85)"/><path d="M147.25,6.25h12.48c.41,0,.76.27,1.08.82A3.91,3.91,0,0,1,161.27,9a4.19,4.19,0,0,1-.45,2c-.31.56-.67.84-1.09.84h-4.66V44.6h4.66a1.28,1.28,0,0,1,1.09.81,4,4,0,0,1,.45,2,4,4,0,0,1-.45,2,1.31,1.31,0,0,1-1.09.81H147.25a1.28,1.28,0,0,1-1.09-.81,4,4,0,0,1-.45-2,4,4,0,0,1,.45-2,1.28,1.28,0,0,1,1.09-.81H152V11.86h-4.74a1.28,1.28,0,0,1-1.09-.82,4,4,0,0,1-.45-1.95,4.19,4.19,0,0,1,.45-2A1.28,1.28,0,0,1,147.25,6.25Z" transform="translate(-3.16 -4.85)"/></svg>